<?xml version="1.0" encoding="UTF-8"?>
<svg width="24px" height="24px" viewBox="0 0 24 24" version="1.1" xmlns="http://www.w3.org/2000/svg" xmlns:xlink="http://www.w3.org/1999/xlink">
    <title>icons/downarrow</title>
    <g id="icons/downarrow" stroke="none" stroke-width="1" fill="none" fill-rule="evenodd">
        <g id="download_FILL0_wght400_GRAD0_opsz24" transform="translate(4.000000, 4.000000)" fill="#1C1917" fill-rule="nonzero">
            <path d="M2,16 C1.45,16 0.979333333,15.8043333 0.588,15.413 C0.196,15.021 0,14.55 0,14 L0,11 L2,11 L2,14 L14,14 L14,11 L16,11 L16,14 C16,14.55 15.8043333,15.021 15.413,15.413 C15.021,15.8043333 14.55,16 14,16 L2,16 Z M8,12 L3,7 L4.4,5.55 L7,8.15 L7,0 L9,0 L9,8.15 L11.6,5.55 L13,7 L8,12 Z" id="Shape"></path>
        </g>
    </g>
</svg>