<?xml version="1.0" encoding="UTF-8"?>
<svg width="25px" height="24px" viewBox="0 0 25 24" version="1.1" xmlns="http://www.w3.org/2000/svg" xmlns:xlink="http://www.w3.org/1999/xlink">
    <title>Vector-1</title>
    <g id="Symbols" stroke="none" stroke-width="1" fill="none" fill-rule="evenodd">
        <g id="desktop/footer" transform="translate(-976.000000, -178.000000)" fill="#FFFFFF" fill-rule="nonzero">
            <g id="Group-5" transform="translate(936.000000, 178.000000)">
                <g id="Vector-1" transform="translate(40.022996, 0.000000)">
                    <path d="M8.00095147,11.999976 C8.00095147,9.79092 9.79135774,7.999656 12.0004737,7.999656 C14.2096377,7.999656 16.0009515,9.79092 16.0009515,11.999976 C16.0009515,14.209032 14.2096377,16.000296 12.0004737,16.000296 C9.79135774,16.000296 8.00095147,14.209032 8.00095147,11.999976 Z M5.83836943,11.999976 C5.83836943,15.403176 8.59716189,18.161832 12.0004737,18.161832 C15.4038336,18.161832 18.162578,15.403176 18.162578,11.999976 C18.162578,8.596776 15.4038336,5.838168 12.0004737,5.838168 C8.59716189,5.838168 5.83836943,8.596776 5.83836943,11.999976 Z M16.9664632,5.5938 C16.9663673,5.878632 17.0507041,6.15708 17.2088716,6.39396 C17.3669912,6.630792 17.5918414,6.815448 17.8549262,6.924552 C18.118011,7.033656 18.407529,7.062312 18.6869247,7.006824 C18.9662724,6.951384 19.2229288,6.814344 19.424416,6.613032 C19.6259033,6.41172 19.7631545,6.155208 19.8188034,5.875896 C19.8745002,5.596584 19.8461001,5.307048 19.737201,5.043864 C19.628302,4.78068 19.4438452,4.555704 19.2070497,4.3974048 C18.9703021,4.2390816 18.6919139,4.1545152 18.4070972,4.1544 L18.4065216,4.1544 C18.0247512,4.1545776 17.658668,4.306272 17.388675,4.576152 C17.1186341,4.846056 16.9667991,5.212056 16.9664632,5.5938 L16.9664632,5.5938 Z M7.15230628,21.767688 C5.98228891,21.714408 5.34635671,21.519528 4.92376116,21.354888 C4.36347304,21.136776 3.9637127,20.877 3.54340546,20.457288 C3.12310302,20.037576 2.86293019,19.638216 2.64577009,19.07796 C2.48103026,18.65556 2.28613931,18.019464 2.23295626,16.849512 C2.17477441,15.584664 2.16316011,15.204648 2.16316011,12.000072 C2.16316011,8.795496 2.17573388,8.416584 2.23295626,7.150632 C2.28623525,5.98068 2.4825654,5.345832 2.64577009,4.922184 C2.86388965,4.361952 3.1236787,3.962208 3.54340546,3.54192 C3.96313702,3.121632 4.36251357,2.861472 4.92376116,2.64432 C5.34616482,2.479584 5.98228891,2.284704 7.15230628,2.23152 C8.41721457,2.173344 8.79720996,2.161728 12.0004737,2.161728 C15.2037375,2.161728 15.5841167,2.174304 16.8501284,2.23152 C18.0201457,2.2848 18.6549745,2.48112 19.0786735,2.64432 C19.638952,2.861472 20.0387123,3.122208 20.4590052,3.54192 C20.879298,3.961632 21.138497,4.361952 21.356631,4.922184 C21.5213708,5.344584 21.7162857,5.98068 21.76944,7.150632 C21.8276314,8.416584 21.8392409,8.795496 21.8392409,12.000072 C21.8392409,15.204648 21.8276314,15.583608 21.76944,16.849512 C21.7161898,18.019464 21.5203154,18.655368 21.356631,19.07796 C21.138497,19.638216 20.8787224,20.03796 20.4590052,20.457288 C20.039288,20.876616 19.638952,21.136776 19.0786735,21.354888 C18.6562218,21.519624 18.0201457,21.714504 16.8501284,21.767688 C15.5851721,21.825864 15.2051767,21.83748 12.0004737,21.83748 C8.79577077,21.83748 8.41683078,21.825864 7.15230628,21.767688 L7.15230628,21.767688 Z M7.0529059,0.072672 C5.77538067,0.130848 4.90246107,0.333408 4.14007163,0.630048 C3.35053418,0.936384 2.68215773,1.34736 2.01425622,2.014176 C1.34635951,2.680992 0.936424071,3.3504 0.630072275,4.139904 C0.333420651,4.902696 0.130853987,5.775192 0.0726750183,7.052664 C0.0135365863,8.332152 0,8.74116 0,11.999976 C0,15.258792 0.0135365863,15.667848 0.0726750183,16.947336 C0.130853987,18.224904 0.333420651,19.097256 0.630072275,19.860072 C0.936424071,20.649096 1.34645546,21.319272 2.01425622,21.9858 C2.68206179,22.652328 3.35053418,23.062776 4.14007163,23.369976 C4.90390027,23.666616 5.77538067,23.869128 7.0529059,23.927304 C8.33311762,23.98548 8.7415611,23.999976 12.0004737,23.999976 C15.2594343,23.999976 15.6685015,23.98644 16.9480416,23.927304 C18.2256627,23.869128 19.0980546,23.666616 19.8609238,23.369976 C20.6499384,23.062776 21.3188281,22.652616 21.9867104,21.9858 C22.6545928,21.318984 23.0637079,20.649096 23.37088,19.860072 C23.667546,19.097256 23.8710961,18.224808 23.9282801,16.947336 C23.9864716,15.666888 24,15.258792 24,11.999976 C24,8.74116 23.9864716,8.332152 23.9282801,7.052664 C23.8701367,5.775096 23.667546,4.902216 23.37088,4.139904 C23.0637079,3.35088 22.6535373,2.682048 21.9867104,2.014176 C21.3198835,1.346304 20.6499384,0.936384 19.8618833,0.630048 C19.0980546,0.333408 18.2255668,0.129888 16.949001,0.072672 C15.6694609,0.014496 15.2603938,0 12.0014332,0 C8.74252056,0 8.33311762,0.013536 7.0529059,0.072672 Z" id="Shape"></path>
                </g>
            </g>
        </g>
    </g>
</svg>