<?xml version="1.0" encoding="UTF-8"?>
<svg width="24px" height="24px" viewBox="0 0 24 24" version="1.1" xmlns="http://www.w3.org/2000/svg" xmlns:xlink="http://www.w3.org/1999/xlink">
    <title>Shape</title>
    <g id="Symbols" stroke="none" stroke-width="1" fill="none" fill-rule="evenodd">
        <g id="desktop/footer" transform="translate(-936.000000, -178.000000)" fill="#FFFFFF">
            <g id="Subtract" transform="translate(936.000000, 178.000000)">
                <path d="M3.84,0 C1.7193744,0 0,1.7192592 0,3.84 L0,20.16 C0,22.280736 1.7193744,24 3.84,24 L20.16,24 C22.28064,24 24,22.280736 24,20.16 L24,3.84 C24,1.7192592 22.28064,0 20.16,0 L3.84,0 Z M7.296576,9.2856 L7.296576,20.096976 L3.7031232,20.096976 L3.7031232,9.2856 L7.296576,9.2856 Z M7.533264,5.942112 C7.533264,6.979584 6.753264,7.809744 5.5008,7.809744 L5.476896,7.8096 C4.2707808,7.8096 3.4912512,6.97944 3.4912512,5.942016 C3.4912512,4.880976 4.2946896,4.073904 5.524224,4.073904 C6.753264,4.073904 7.50984,4.880976 7.533264,5.942112 Z M12.878928,20.096976 L9.285456,20.096976 C9.285456,20.096976 9.332832,10.300176 9.285936,9.285936 L12.87936,9.285936 L12.87936,10.816272 C13.357008,10.079904 14.212032,9.032112 16.117968,9.032112 C18.481872,9.032112 20.254704,10.577328 20.254704,13.898064 L20.254704,20.096976 L16.661232,20.096976 L16.661232,14.313744 C16.661232,12.860256 16.14096,11.868864 14.841072,11.868864 C13.848288,11.868864 13.256736,12.537552 12.997488,13.183344 C12.951072,13.29528 12.922032,13.429008 12.904224,13.573824 C12.885024,13.727568 12.878928,13.893888 12.878928,14.060016 L12.878928,20.096976 Z" id="Shape"></path>
            </g>
        </g>
    </g>
</svg>