<?xml version="1.0" encoding="UTF-8"?>
<svg width="24px" height="24px" viewBox="0 0 24 24" version="1.1" xmlns="http://www.w3.org/2000/svg" xmlns:xlink="http://www.w3.org/1999/xlink">
    <title>Vector</title>
    <g id="Symbols" stroke="none" stroke-width="1" fill="none" fill-rule="evenodd">
        <g id="desktop/footer" transform="translate(-1053.000000, -178.000000)">
            <g id="Vector" transform="translate(1053.000000, 178.000000)">
                <rect id="Rectangle" x="0" y="0" width="24" height="24"></rect>
                <path d="M22.8339385,5.10148407 C22.1075792,5.41378647 21.3439362,5.63126007 20.5618916,5.74852407 C20.9275216,5.68590807 21.4654925,5.02843287 21.6796335,4.76231127 C22.0049529,4.36089207 22.2529183,3.90264087 22.4108455,3.41083287 C22.4108455,3.37430967 22.4474085,3.32212887 22.4108455,3.29603607 C22.3924438,3.28598967 22.3717841,3.28072407 22.350788,3.28072407 C22.3297919,3.28072407 22.3091801,3.28598967 22.2907305,3.29603607 C21.4415656,3.75544407 20.5378205,4.10607927 19.6008757,4.33964727 C19.5682044,4.34961207 19.5334671,4.35050967 19.5003154,4.34223447 C19.4672117,4.33395927 19.4369427,4.31683287 19.4128236,4.29268407 C19.3398898,4.20592407 19.2613827,4.12400247 19.1777827,4.04743767 C18.7956248,3.70536567 18.3620578,3.42539607 17.8929368,3.21776727 C17.2596425,2.95820775 16.5756118,2.84579895 15.8924939,2.88902823 C15.2296514,2.93084967 14.5825199,3.10846695 13.991314,3.41083287 C13.4091407,3.72961527 12.8974509,4.16269527 12.4870421,4.68403767 C12.0553488,5.22063927 11.7437225,5.84337207 11.5730151,6.51035607 C11.4322884,7.14479607 11.4163371,7.80053847 11.5260261,8.44105047 C11.5260261,8.55063447 11.5260261,8.56628247 11.4320001,8.55063447 C7.70795535,8.00271447 4.65248495,6.68255607 2.15586149,3.84914967 C2.0461773,3.72391767 1.9887239,3.72391767 1.89993491,3.84914967 C0.813538177,5.49805527 1.34106394,8.10706647 2.69905986,9.39596247 C2.88186525,9.56813847 3.06989804,9.73513047 3.26837123,9.89165847 C2.64574323,9.84749847 2.03831698,9.67892247 1.48208854,9.39596247 C1.37762694,9.32809047 1.32017355,9.36461847 1.31495095,9.48985047 C1.30014317,9.66346647 1.30014317,9.83804247 1.31495095,10.0116585 C1.42393367,10.8437385 1.75215986,11.6319465 2.26606939,12.2957385 C2.77997892,12.9595305 3.46112694,13.4750025 4.23986117,13.7895465 C4.42969569,13.8707625 4.62750584,13.9320105 4.83006774,13.9721865 C4.25366478,14.0855625 3.66248769,14.1031785 3.08034324,14.0243625 C2.95499125,13.9982505 2.90798305,14.0661225 2.95499125,14.1861225 C3.7227806,16.2733545 5.38891949,16.9099305 6.61111341,17.2647465 C6.77826542,17.2908585 6.94541742,17.2908585 7.13342138,17.3326185 C7.13342138,17.3326185 7.13342138,17.3326185 7.1020954,17.3639145 C6.74170242,18.0213705 5.2844675,18.4649385 4.61592195,18.6945225 C3.39564506,19.1324265 2.09460286,19.2998025 0.803092979,19.1850345 C0.59939239,19.1536905 0.552385153,19.1589225 0.500154356,19.1850345 C0.447924039,19.2110985 0.500154356,19.2685065 0.557608232,19.3206825 C0.818760776,19.4928585 1.07991476,19.6442025 1.35151395,19.7903145 C2.16006552,20.2309065 3.01486616,20.5808745 3.90036339,20.8339305 C8.48620431,22.0966665 13.646584,21.1678665 17.0885988,17.7500265 C19.7941166,15.0679785 20.7447066,11.3683785 20.7447066,7.66354647 C20.7447066,7.52266647 20.9170956,7.43919447 21.0163106,7.36611927 C21.7008218,6.83330007 22.3042794,6.20405367 22.8078014,5.49805527 C22.8950049,5.39281527 22.9397357,5.25882327 22.9331534,5.12235447 C22.9331534,5.04408567 22.9331534,5.05973847 22.8339385,5.10148407 Z" id="Path" fill="#FFFFFF" fill-rule="nonzero"></path>
            </g>
        </g>
    </g>
</svg>