<?xml version="1.0" encoding="UTF-8"?>
<svg width="24px" height="24px" viewBox="0 0 24 24" version="1.1" xmlns="http://www.w3.org/2000/svg" xmlns:xlink="http://www.w3.org/1999/xlink">
    <title>Vector-2</title>
    <g id="Symbols" stroke="none" stroke-width="1" fill="none" fill-rule="evenodd">
        <g id="desktop/footer" transform="translate(-1015.000000, -178.000000)">
            <g id="Vector-2" transform="translate(1015.000000, 178.000000)">
                <rect id="Rectangle" x="0" y="0" width="24" height="24"></rect>
                <path d="M22.4682934,7.40762879 C22.3729702,9.37651199 20.9166481,12.072576 18.0999999,15.494352 C15.1878363,19.068768 12.7239898,20.855808 10.7084125,20.855808 C9.46032174,20.855808 8.40326188,19.767696 7.54050002,17.590656 C6.96390008,15.595104 6.38792473,13.599744 5.81152659,11.60424 C5.17044892,9.42839999 4.48309817,8.33908799 3.7482011,8.33908799 C3.58798694,8.33908799 3.02722776,8.65742399 2.0672112,9.29174399 L1.05943212,8.06574719 C2.11647756,7.18859519 3.15938306,6.31164479 4.18537158,5.43348479 C5.5951899,4.28299679 6.65352297,3.67797407 7.35883813,3.61680575 C9.02593793,3.46560095 10.051912,4.54159679 10.4370487,6.84500159 C10.8532231,9.33009599 11.1410666,10.87584 11.3030296,11.48088 C11.7834415,13.542624 12.3120915,14.572224 12.8897485,14.572224 C13.3380656,14.572224 14.0114783,13.903584 14.9094098,12.566352 C15.8064284,11.228736 16.2868884,10.211088 16.3517504,9.51196799 C16.4794086,8.35766399 15.9988046,7.77908159 14.9094098,7.77908159 C14.3966149,7.77908159 13.8679649,7.89051839 13.3241323,8.11076159 C14.3766758,4.85471039 16.3879771,3.27341519 19.3566909,3.3636536 C21.5575336,3.42461999 22.5950868,4.77254399 22.4682934,7.40762879 Z" id="Path" fill="#FFFFFF" fill-rule="nonzero"></path>
            </g>
        </g>
    </g>
</svg>